<svg width="184" height="38" viewBox="0 0 184 38" fill="none" xmlns="http://www.w3.org/2000/svg">
<path d="M16.604 22.42H5.66L3.644 28H0.188L9.26 3.052H13.04L22.076 28H18.62L16.604 22.42ZM15.668 19.756L11.132 7.084L6.596 19.756H15.668ZM29.3058 11.476C29.8818 10.348 30.6978 9.472 31.7538 8.848C32.8338 8.224 34.1418 7.912 35.6778 7.912V11.296H34.8138C31.1418 11.296 29.3058 13.288 29.3058 17.272V28H26.0298V8.272H29.3058V11.476ZM43.4555 10.972V22.6C43.4555 23.56 43.6595 24.244 44.0675 24.652C44.4755 25.036 45.1835 25.228 46.1915 25.228H48.6035V28H45.6515C43.8275 28 42.4595 27.58 41.5475 26.74C40.6355 25.9 40.1795 24.52 40.1795 22.6V10.972H37.6235V8.272H40.1795V3.304H43.4555V8.272H48.6035V10.972H43.4555Z" fill="#AB41FF"/>
<path d="M54.2648 5.068C53.6408 5.068 53.1128 4.852 52.6808 4.42C52.2488 3.988 52.0328 3.46 52.0328 2.836C52.0328 2.212 52.2488 1.684 52.6808 1.252C53.1128 0.819999 53.6408 0.603999 54.2648 0.603999C54.8648 0.603999 55.3688 0.819999 55.7768 1.252C56.2088 1.684 56.4248 2.212 56.4248 2.836C56.4248 3.46 56.2088 3.988 55.7768 4.42C55.3688 4.852 54.8648 5.068 54.2648 5.068ZM55.8488 8.272V28H52.5728V8.272H55.8488ZM68.4162 28.324C66.9042 28.324 65.5482 28.072 64.3482 27.568C63.1482 27.04 62.2002 26.32 61.5042 25.408C60.8082 24.472 60.4242 23.404 60.3522 22.204H63.7362C63.8322 23.188 64.2882 23.992 65.1042 24.616C65.9442 25.24 67.0362 25.552 68.3802 25.552C69.6282 25.552 70.6122 25.276 71.3322 24.724C72.0522 24.172 72.4122 23.476 72.4122 22.636C72.4122 21.772 72.0282 21.136 71.2602 20.728C70.4922 20.296 69.3042 19.876 67.6962 19.468C66.2322 19.084 65.0322 18.7 64.0962 18.316C63.1842 17.908 62.3922 17.32 61.7202 16.552C61.0722 15.76 60.7482 14.728 60.7482 13.456C60.7482 12.448 61.0482 11.524 61.6482 10.684C62.2482 9.844 63.1002 9.184 64.2042 8.704C65.3082 8.2 66.5682 7.948 67.9842 7.948C70.1682 7.948 71.9322 8.5 73.2762 9.604C74.6202 10.708 75.3402 12.22 75.4362 14.14H72.1602C72.0882 13.108 71.6682 12.28 70.9002 11.656C70.1562 11.032 69.1482 10.72 67.8762 10.72C66.7002 10.72 65.7642 10.972 65.0682 11.476C64.3722 11.98 64.0242 12.64 64.0242 13.456C64.0242 14.104 64.2282 14.644 64.6362 15.076C65.0682 15.484 65.5962 15.82 66.2202 16.084C66.8682 16.324 67.7562 16.6 68.8842 16.912C70.3002 17.296 71.4522 17.68 72.3402 18.064C73.2282 18.424 73.9842 18.976 74.6082 19.72C75.2562 20.464 75.5922 21.436 75.6162 22.636C75.6162 23.716 75.3162 24.688 74.7162 25.552C74.1162 26.416 73.2642 27.1 72.1602 27.604C71.0802 28.084 69.8322 28.324 68.4162 28.324ZM84.2368 10.972V22.6C84.2368 23.56 84.4408 24.244 84.8488 24.652C85.2568 25.036 85.9648 25.228 86.9727 25.228H89.3848V28H86.4328C84.6088 28 83.2408 27.58 82.3288 26.74C81.4168 25.9 80.9608 24.52 80.9608 22.6V10.972H78.4048V8.272H80.9608V3.304H84.2368V8.272H89.3848V10.972H84.2368ZM95.046 5.068C94.422 5.068 93.894 4.852 93.462 4.42C93.03 3.988 92.814 3.46 92.814 2.836C92.814 2.212 93.03 1.684 93.462 1.252C93.894 0.819999 94.422 0.603999 95.046 0.603999C95.646 0.603999 96.15 0.819999 96.558 1.252C96.99 1.684 97.206 2.212 97.206 2.836C97.206 3.46 96.99 3.988 96.558 4.42C96.15 4.852 95.646 5.068 95.046 5.068ZM96.63 8.272V28H93.354V8.272H96.63ZM100.989 18.1C100.989 16.06 101.397 14.284 102.213 12.772C103.029 11.236 104.157 10.048 105.597 9.208C107.061 8.368 108.729 7.948 110.601 7.948C113.025 7.948 115.017 8.536 116.577 9.712C118.161 10.888 119.205 12.52 119.709 14.608H116.181C115.845 13.408 115.185 12.46 114.201 11.764C113.241 11.068 112.041 10.72 110.601 10.72C108.729 10.72 107.217 11.368 106.065 12.664C104.913 13.936 104.337 15.748 104.337 18.1C104.337 20.476 104.913 22.312 106.065 23.608C107.217 24.904 108.729 25.552 110.601 25.552C112.041 25.552 113.241 25.216 114.201 24.544C115.161 23.872 115.821 22.912 116.181 21.664H119.709C119.181 23.68 118.125 25.3 116.541 26.524C114.957 27.724 112.977 28.324 110.601 28.324C108.729 28.324 107.061 27.904 105.597 27.064C104.157 26.224 103.029 25.036 102.213 23.5C101.397 21.964 100.989 20.164 100.989 18.1ZM122.857 18.064C122.857 16.048 123.265 14.284 124.081 12.772C124.897 11.236 126.013 10.048 127.429 9.208C128.869 8.368 130.465 7.948 132.217 7.948C133.945 7.948 135.445 8.32 136.717 9.064C137.989 9.808 138.937 10.744 139.561 11.872V8.272H142.873V28H139.561V24.328C138.913 25.48 137.941 26.44 136.645 27.208C135.373 27.952 133.885 28.324 132.181 28.324C130.429 28.324 128.845 27.892 127.429 27.028C126.013 26.164 124.897 24.952 124.081 23.392C123.265 21.832 122.857 20.056 122.857 18.064ZM139.561 18.1C139.561 16.612 139.261 15.316 138.661 14.212C138.061 13.108 137.245 12.268 136.213 11.692C135.205 11.092 134.089 10.792 132.865 10.792C131.641 10.792 130.525 11.08 129.517 11.656C128.509 12.232 127.705 13.072 127.105 14.176C126.505 15.28 126.205 16.576 126.205 18.064C126.205 19.576 126.505 20.896 127.105 22.024C127.705 23.128 128.509 23.98 129.517 24.58C130.525 25.156 131.641 25.444 132.865 25.444C134.089 25.444 135.205 25.156 136.213 24.58C137.245 23.98 138.061 23.128 138.661 22.024C139.261 20.896 139.561 19.588 139.561 18.1ZM151.685 1.36V28H148.409V1.36H151.685ZM160.544 1.36V28H157.268V1.36H160.544ZM183.119 8.272L171.239 37.288H167.855L171.743 27.784L163.787 8.272H167.423L173.615 24.256L179.735 8.272H183.119Z" fill="white"/>
</svg>
